<svg xmlns="http://www.w3.org/2000/svg" viewBox="0 0 71.98 32.00" fill="none">
  <g transform="translate(2.00, 2.00)">
    <g transform="scale(1)">
      <path d="M8 0H16L8 20H0L8 0Z" fill="oklch(59.6% 0.145 163.225)"/>
      <path d="M18 8H26L18 28H10L18 8Z" fill="oklch(59.6% 0.145 163.225)"/>
    </g>
  </g>
  <path d="M45.8613 15.4668L40.6387 21.1680L40.6387 17.7090Q41.2949 16.6426 41.9307 15.7061Q42.5664 14.7695 43.2842 13.8535Q44.0020 12.9375 44.8906 11.9121L44.8906 11.9121L50.2363 5.8145L54.7754 5.8145L46.1348 15.5625L45.8613 15.4668ZM41.6504 26.1855L38 26.1855L38 5.8145L41.6504 5.8145L41.6504 11.8574L41.5820 16.7656L41.6504 18.5566L41.6504 26.1855ZM54.9121 26.1855L50.6055 26.1855L44.1250 16.6016L46.4219 13.8535L54.9121 26.1855ZM69.9766 26.1855L56.6875 26.1855L56.6875 5.8145L69.9219 5.8145L69.9219 8.8906L60.3379 8.8906L60.3379 14.3867L69.2109 14.3867L69.2109 17.4219L60.3379 17.4219L60.3379 23.1094L69.9766 23.1094L69.9766 26.1855Z" fill="oklch(20.5% 0 0)"/>
</svg>