<?xml version="1.0" encoding="UTF-8"?>
<svg xmlns="http://www.w3.org/2000/svg" width="60" height="60" viewBox="0 0 60 60" fill="none">
  <mask id="mask0_17_52" style="mask-type:luminance" maskUnits="userSpaceOnUse" x="7" y="9" width="47" height="41">
    <path d="M53.2107 9H7V50H53.2107V9Z" fill="white"></path>
  </mask>
  <g mask="url(#mask0_17_52)">
    <mask id="mask1_17_52" style="mask-type:luminance" maskUnits="userSpaceOnUse" x="7" y="9" width="47" height="42">
      <path d="M53.3071 9.08569H7.09644V50.0857H53.3071V9.08569Z" fill="white"></path>
    </mask>
    <g mask="url(#mask1_17_52)">
      <path d="M48.3373 22.6404C42.4037 4.43058 17.8343 4.4335 11.9056 22.6462C11.168 22.7248 10.488 23.0399 9.99399 23.5325C9.49998 24.025 9.226 24.6607 9.22388 25.32V32.3893C9.22504 33.1069 9.54677 33.795 10.1187 34.3023C10.6906 34.8097 11.466 35.0952 12.2748 35.0962H15.8134C15.9225 35.0964 16.0304 35.0773 16.1311 35.0404C16.2319 35.0034 16.3233 34.9492 16.4005 34.8807C16.4776 34.8124 16.5387 34.7313 16.5803 34.6419C16.622 34.5525 16.6433 34.4568 16.6433 34.3601V23.3487C16.6433 23.252 16.622 23.1563 16.5803 23.0669C16.5387 22.9775 16.4776 22.8964 16.4005 22.8279C16.3233 22.7596 16.2319 22.7053 16.1311 22.6684C16.0304 22.6315 15.9225 22.6125 15.8134 22.6126H13.6437C16.1155 15.3671 22.7555 10.3792 30.1219 10.3792C37.4884 10.3792 44.1309 15.3671 46.6027 22.6126H44.432C44.3231 22.6126 44.2152 22.6317 44.1147 22.6685C44.014 22.7056 43.9227 22.7598 43.8456 22.8283C43.7686 22.8965 43.7077 22.9777 43.6659 23.0671C43.6244 23.1563 43.6031 23.252 43.6031 23.3487V34.3601C43.6031 34.4566 43.6244 34.5524 43.6659 34.6417C43.7077 34.731 43.7686 34.8121 43.8456 34.8805C43.9227 34.9488 44.014 35.0032 44.1147 35.0401C44.2152 35.0771 44.3231 35.0962 44.432 35.0962H46.5672C45.6719 37.3483 44.2154 39.3921 42.3059 41.0751C40.3966 42.7582 38.0835 44.0371 35.5394 44.8166C35.1446 44.0283 34.4565 43.3845 33.5903 42.9929C32.7242 42.6012 31.7327 42.4854 30.782 42.6651C29.8311 42.8447 28.9787 43.3085 28.3675 43.9793C27.7563 44.6499 27.4234 45.4865 27.4243 46.349C27.6204 51.386 35.8679 51.3061 35.905 46.2573C38.8198 45.3898 41.4629 43.9247 43.6199 41.9811C45.7769 40.0373 47.3868 37.6697 48.3191 35.0704C49.0722 35.0089 49.7721 34.7002 50.2824 34.2052C50.7926 33.7101 51.0767 33.064 51.0788 32.3931V25.3157C51.0765 24.6479 50.7949 24.0044 50.2886 23.5102C49.7824 23.0159 49.0865 22.7061 48.3373 22.6404ZM14.9838 33.6246H12.2748C11.9056 33.6243 11.5516 33.4939 11.2908 33.2623C11.0298 33.0309 10.8828 32.7168 10.8824 32.3893V25.32C10.8828 24.9925 11.0298 24.6786 11.2908 24.447C11.5516 24.2156 11.9056 24.0852 12.2748 24.0848H14.9846L14.9838 33.6246ZM31.6689 48.6447C30.9827 48.6447 30.325 48.4028 29.8398 47.9722C29.3549 47.5418 29.0825 46.958 29.0825 46.3494C29.0827 45.7407 29.3553 45.157 29.8404 44.7267C30.3257 44.2963 30.9837 44.0546 31.6697 44.0548C32.3557 44.0548 33.0137 44.2965 33.4988 44.7269C33.9839 45.1573 34.2564 45.7411 34.2564 46.3497C34.2564 46.9584 33.9839 47.5422 33.4988 47.9726C33.0137 48.403 32.3549 48.6447 31.6689 48.6447ZM49.4195 32.3931C49.4191 32.7197 49.2729 33.0328 49.0126 33.2637C48.7522 33.4946 48.3993 33.6245 48.0312 33.6246H45.2601V24.0848H48.0312C48.3991 24.085 48.752 24.2147 49.0123 24.4454C49.2725 24.6763 49.4189 24.9892 49.4195 25.3157V32.3931Z" fill="#79BA1F"></path>
      <path d="M37.5452 33.0396C38.2672 33.0389 38.9592 32.784 39.4696 32.3311C39.9799 31.8781 40.267 31.2641 40.2676 30.6235V23.0059C40.267 22.3654 39.9799 21.7512 39.4696 21.2983C38.9592 20.8454 38.2672 20.5905 37.5452 20.5898H22.7C21.9778 20.5904 21.2856 20.8451 20.775 21.2982C20.2645 21.7511 19.9774 22.3654 19.9768 23.0059V30.6235C19.9803 30.9646 20.064 31.3011 20.2224 31.6118C20.3809 31.9225 20.6108 32.2004 20.8972 32.4277C21.1835 32.6552 21.5203 32.8271 21.8858 32.9324C22.2514 33.0377 22.6377 33.0743 23.0201 33.0396C23.0325 34.2507 23.0431 36.6852 22.9399 38.0202C22.8993 38.231 22.9416 38.4477 23.0594 38.6341C23.1773 38.8206 23.3637 38.9656 23.5876 39.0448C24.6679 39.3258 25.8003 38.4408 30.5345 33.0396H37.5452ZM29.4608 31.8602C27.9639 33.6469 26.3591 35.3603 24.653 36.9926C24.7183 35.0301 24.6712 32.4246 24.6696 32.291C24.6661 32.098 24.577 31.9137 24.4219 31.7784C24.2667 31.6429 24.0575 31.5672 23.8397 31.5674H22.7C22.4177 31.5674 22.147 31.4679 21.9474 31.291C21.7477 31.114 21.6356 30.874 21.6354 30.6235V23.0059C21.6354 22.7555 21.7475 22.5151 21.947 22.3379C22.1468 22.1609 22.4175 22.0614 22.7 22.0614H37.5452C37.8275 22.0616 38.098 22.1611 38.2975 22.3383C38.497 22.5153 38.609 22.7555 38.609 23.0059V30.6235C38.6088 30.8738 38.4967 31.1138 38.2971 31.2907C38.0978 31.4677 37.8273 31.5672 37.5452 31.5674H30.1227C29.9943 31.5674 29.8676 31.594 29.7528 31.6447C29.6381 31.6955 29.538 31.7693 29.4608 31.8602Z" fill="#79BA1F"></path>
      <path d="M34.8524 24.1992H25.3921C25.1768 24.2052 24.9726 24.2853 24.8225 24.4227C24.6725 24.56 24.5888 24.7437 24.5888 24.935C24.5888 25.1263 24.6725 25.31 24.8225 25.4472C24.9726 25.5846 25.1768 25.6648 25.3921 25.6708H34.8524C35.0724 25.6708 35.2834 25.5932 35.439 25.4551C35.5947 25.317 35.682 25.1299 35.682 24.9346C35.682 24.7394 35.5947 24.5521 35.439 24.4142C35.2834 24.2761 35.0724 24.1992 34.8524 24.1992ZM34.8524 27.7228H25.3921C25.2812 27.7197 25.1704 27.7365 25.0667 27.7721C24.9631 27.8076 24.8686 27.8613 24.7887 27.93C24.7088 27.9987 24.6454 28.0808 24.6019 28.1716C24.5586 28.2623 24.5364 28.3599 24.5364 28.4586C24.5364 28.5572 24.5586 28.6548 24.6019 28.7458C24.6454 28.8365 24.7088 28.9187 24.7887 28.9873C24.8686 29.0559 24.9631 29.1096 25.0667 29.1453C25.1704 29.1808 25.2812 29.1976 25.3921 29.1944H34.8524C35.0678 29.1884 35.272 29.1082 35.422 28.9708C35.572 28.8336 35.6558 28.6499 35.6558 28.4586C35.6558 28.2675 35.572 28.0838 35.422 27.9463C35.272 27.8091 35.0678 27.729 34.8524 27.7228Z" fill="#79BA1F"></path>
    </g>
  </g>
</svg>
