<svg xmlns="http://www.w3.org/2000/svg" fill="none" viewBox="0 0 1201 450" height="450" width="1201">
<path fill="#ED242A" d="M397.662 148.499L400.182 297.416L296.664 404.499L147.746 407.019L40.6638 303.501L38.1437 154.583L141.662 47.5009L290.58 44.9807L397.662 148.499Z"></path>
<path stroke-width="14.75" stroke="#040634" d="M421.777 141.105L421.725 138.051L419.529 135.927L302.401 22.6984L300.205 20.5752L297.151 20.6268L134.264 23.3834L131.21 23.4351L129.087 25.6314L15.8577 142.759L13.7344 144.955L13.7861 148.009L16.5427 310.896L16.5944 313.95L18.7907 316.073L135.918 429.302L138.114 431.426L141.169 431.374L304.055 428.617L307.11 428.566L309.233 426.369L422.462 309.242L424.585 307.046L424.533 303.991L421.777 141.105Z"></path>
<path stroke-width="16.75" stroke="white" d="M406.032 148.358L405.973 144.889L403.479 142.478L296.397 38.9597L293.902 36.5486L290.434 36.6073L141.517 39.1274L138.048 39.1861L135.637 41.6803L32.1184 148.763L29.7072 151.257L29.7659 154.725L32.2861 303.643L32.3448 307.111L34.8389 309.523L141.921 413.041L144.416 415.452L147.884 415.393L296.802 412.873L300.27 412.815L302.681 410.32L406.2 303.238L408.611 300.744L408.552 297.275L406.032 148.358Z"></path>
<path fill="white" d="M91.1047 227.695H77.4103C77.5456 231.177 78.3233 234.09 79.7435 236.434C81.2312 238.711 83.091 240.553 85.3227 241.959C87.622 243.365 90.2256 244.37 93.1335 244.972C96.0415 245.575 99.017 245.876 102.06 245.876C105.036 245.876 107.944 245.575 110.784 244.972C113.692 244.437 116.262 243.466 118.494 242.059C120.725 240.653 122.517 238.812 123.87 236.535C125.29 234.191 126 231.311 126 227.896C126 225.485 125.527 223.476 124.58 221.869C123.633 220.195 122.382 218.822 120.827 217.751C119.271 216.612 117.479 215.708 115.45 215.039C113.489 214.369 111.46 213.8 109.364 213.331C107.335 212.862 105.34 212.427 103.379 212.025C101.418 211.623 99.6595 211.188 98.1041 210.719C96.6163 210.183 95.399 209.514 94.4522 208.71C93.5055 207.907 93.0321 206.869 93.0321 205.596C93.0321 204.525 93.3026 203.688 93.8436 203.085C94.3846 202.415 95.0271 201.913 95.771 201.578C96.5825 201.243 97.4616 201.043 98.4084 200.976C99.3552 200.842 100.234 200.775 101.046 200.775C103.616 200.775 105.847 201.277 107.741 202.281C109.634 203.219 110.683 205.061 110.886 207.806H124.58C124.309 204.592 123.464 201.947 122.044 199.871C120.691 197.728 118.967 196.02 116.87 194.748C114.774 193.475 112.373 192.571 109.668 192.036C107.031 191.5 104.292 191.232 101.452 191.232C98.6113 191.232 95.8386 191.5 93.1335 192.036C90.4285 192.504 87.9939 193.375 85.8299 194.647C83.6658 195.853 81.9075 197.527 80.555 199.67C79.2701 201.813 78.6276 204.558 78.6276 207.907C78.6276 210.183 79.101 212.125 80.0478 213.733C80.9945 215.273 82.2456 216.579 83.8011 217.65C85.3565 218.655 87.1148 219.492 89.0759 220.161C91.1047 220.764 93.1673 221.3 95.2638 221.769C100.403 222.84 104.393 223.912 107.234 224.983C110.142 226.054 111.596 227.662 111.596 229.805C111.596 231.077 111.291 232.148 110.683 233.019C110.074 233.823 109.296 234.492 108.35 235.028C107.47 235.497 106.456 235.865 105.306 236.133C104.224 236.334 103.176 236.434 102.162 236.434C100.742 236.434 99.3552 236.267 98.0026 235.932C96.7177 235.597 95.5681 235.095 94.5537 234.425C93.5393 233.689 92.694 232.785 92.0177 231.713C91.409 230.575 91.1047 229.235 91.1047 227.695Z"></path>
<path fill="white" d="M135.039 229.101V244.571H150.965V229.101H135.039Z"></path>
<path fill="white" d="M180.923 192.638V177.069H166.518V192.638H157.794V202.181H166.518V232.818C166.518 235.43 166.958 237.539 167.837 239.146C168.716 240.754 169.899 241.992 171.387 242.863C172.943 243.734 174.701 244.303 176.662 244.571C178.691 244.905 180.821 245.073 183.053 245.073C184.473 245.073 185.927 245.039 187.415 244.972C188.903 244.905 190.255 244.772 191.472 244.571V233.521C190.796 233.655 190.086 233.756 189.342 233.823C188.598 233.89 187.821 233.923 187.009 233.923C184.574 233.923 182.951 233.521 182.14 232.718C181.328 231.914 180.923 230.307 180.923 227.896V202.181H191.472V192.638H180.923Z"></path>
<path fill="white" d="M198.935 229.101V244.571H214.861V229.101H198.935Z"></path>
<path fill="white" d="M239.34 218.655C239.34 216.579 239.543 214.536 239.949 212.527C240.355 210.518 241.031 208.744 241.978 207.203C242.992 205.663 244.311 204.424 245.934 203.487C247.557 202.482 249.586 201.98 252.02 201.98C254.455 201.98 256.483 202.482 258.107 203.487C259.797 204.424 261.116 205.663 262.063 207.203C263.077 208.744 263.787 210.518 264.193 212.527C264.599 214.536 264.802 216.579 264.802 218.655C264.802 220.731 264.599 222.773 264.193 224.782C263.787 226.724 263.077 228.499 262.063 230.106C261.116 231.646 259.797 232.885 258.107 233.823C256.483 234.76 254.455 235.229 252.02 235.229C249.586 235.229 247.557 234.76 245.934 233.823C244.311 232.885 242.992 231.646 241.978 230.106C241.031 228.499 240.355 226.724 239.949 224.782C239.543 222.773 239.34 220.731 239.34 218.655ZM224.936 218.655C224.936 222.807 225.578 226.557 226.863 229.905C228.148 233.253 229.974 236.133 232.341 238.544C234.708 240.888 237.548 242.696 240.862 243.968C244.175 245.24 247.895 245.876 252.02 245.876C256.145 245.876 259.865 245.24 263.179 243.968C266.56 242.696 269.434 240.888 271.801 238.544C274.168 236.133 275.994 233.253 277.279 229.905C278.564 226.557 279.206 222.807 279.206 218.655C279.206 214.503 278.564 210.753 277.279 207.404C275.994 203.989 274.168 201.11 271.801 198.766C269.434 196.355 266.56 194.513 263.179 193.241C259.865 191.902 256.145 191.232 252.02 191.232C247.895 191.232 244.175 191.902 240.862 193.241C237.548 194.513 234.708 196.355 232.341 198.766C229.974 201.11 228.148 203.989 226.863 207.404C225.578 210.753 224.936 214.503 224.936 218.655Z"></path>
<path fill="white" d="M289.18 229.101V244.571H305.106V229.101H289.18Z"></path>
<path fill="white" d="M343.28 235.229C340.981 235.229 339.02 234.76 337.397 233.823C335.774 232.885 334.455 231.68 333.441 230.206C332.494 228.666 331.784 226.892 331.31 224.883C330.905 222.874 330.702 220.831 330.702 218.755C330.702 216.612 330.905 214.536 331.31 212.527C331.716 210.518 332.392 208.744 333.339 207.203C334.354 205.663 335.639 204.424 337.194 203.487C338.817 202.482 340.812 201.98 343.179 201.98C345.478 201.98 347.406 202.482 348.961 203.487C350.584 204.424 351.903 205.697 352.917 207.304C353.932 208.844 354.642 210.619 355.047 212.628C355.521 214.637 355.757 216.679 355.757 218.755C355.757 220.831 355.555 222.874 355.149 224.883C354.743 226.892 354.033 228.666 353.019 230.206C352.072 231.68 350.787 232.885 349.164 233.823C347.608 234.76 345.647 235.229 343.28 235.229ZM316.805 192.638V262.752H331.209V238.142H331.412C333.17 240.687 335.402 242.629 338.107 243.968C340.88 245.24 343.889 245.876 347.135 245.876C350.99 245.876 354.337 245.14 357.178 243.667C360.086 242.193 362.486 240.218 364.38 237.74C366.341 235.262 367.795 232.416 368.742 229.202C369.689 225.988 370.162 222.639 370.162 219.157C370.162 215.474 369.689 211.958 368.742 208.61C367.795 205.194 366.341 202.214 364.38 199.67C362.419 197.125 359.95 195.083 356.975 193.542C353.999 192.002 350.449 191.232 346.324 191.232C343.077 191.232 340.102 191.868 337.397 193.141C334.692 194.413 332.46 196.455 330.702 199.268H330.499V192.638H316.805Z"></path>
<path fill="white" d="M520.126 155.818C526.443 155.818 532.917 155.66 538.918 157.397C546.498 159.608 546.34 169.556 546.498 176.82C546.656 184.716 546.182 199.244 548.866 206.823H573.185V204.613C567.816 201.139 568.447 172.083 568.447 167.188C568.447 155.818 564.5 147.449 551.393 145.712V145.396C566.237 143.343 569.553 129.762 569.553 116.814C569.553 95.0217 555.025 88.3894 535.918 88.3894H494.071V206.823H516.179V155.818H520.126ZM516.179 105.76H532.601C540.971 105.918 546.498 108.129 546.498 121.393C546.498 133.237 540.813 137.974 533.549 138.448H516.179V105.76Z"></path>
<path fill="white" d="M588.554 171.767C588.08 197.98 597.713 209.192 621.4 209.192C642.402 209.192 650.613 196.559 649.824 176.662H629.295C629.611 187.874 627.4 193.401 619.821 193.401C613.662 193.401 609.241 191.19 609.083 179.505V166.556H650.14V154.555C650.14 130.236 647.139 115.392 618.557 115.392C598.345 115.392 587.607 127.394 588.554 148.396V171.767ZM609.083 150.765V147.133C609.083 139.079 608.609 131.184 618.873 131.184C627.085 131.184 629.453 134.026 629.611 143.027V150.765H609.083Z"></path>
<path fill="white" d="M663.72 177.452C661.351 204.613 681.722 209.192 692.618 209.192C721.042 209.192 724.832 193.085 723.095 177.61C722.463 171.609 714.252 163.082 709.041 160.082L692.302 148.712C688.354 146.027 684.565 143.659 684.565 138.448C684.565 133.394 688.354 131.184 693.25 131.184C700.356 131.184 703.198 134.974 702.724 144.922H723.253C723.727 125.815 714.568 115.392 694.671 115.392C674.932 115.392 664.036 123.288 664.036 137.026C664.036 149.817 670.668 158.029 680.933 165.135L692.144 172.872C696.092 175.557 701.935 178.399 702.251 183.453C703.672 189.137 699.566 193.401 693.723 193.401C688.986 193.401 682.67 193.875 684.249 177.452H663.72Z"></path>
<path fill="white" d="M769.1 191.032C766.574 191.348 760.889 191.822 760.415 188.032V132.763H769.1V117.761H760.415V93.2849H739.729V117.761H731.517V132.763H739.887V193.085C739.887 209.666 756.941 208.56 769.1 207.139V191.032Z"></path>
<path fill="white" d="M842.738 206.823C841.633 202.718 841.001 198.612 841.001 194.348V141.764C841.317 130.078 839.58 115.392 811.629 115.392C785.89 115.392 780.363 127.236 780.521 144.132H800.102C799.944 136.079 801.523 131.184 810.84 131.184C816.367 131.184 819.525 131.815 820.472 135.763C822.209 143.027 819.051 146.975 810.366 150.607C794.259 157.239 779.889 162.134 779.889 182.505C779.889 200.823 787.153 209.192 803.734 209.192C807.208 209.192 810.524 208.087 813.524 206.192C816.683 204.297 819.367 201.297 821.736 197.665H822.052C821.736 200.823 821.894 203.981 823.315 206.823H842.738ZM820.472 169.556C819.999 178.083 822.209 193.401 810.05 193.401C802.47 193.401 800.418 188.822 800.418 182.031C800.418 178.241 800.891 173.82 803.892 171.293C809.261 166.872 815.419 163.398 820.472 159.924V169.556Z"></path>
<path fill="white" d="M900.692 206.823H920.273V117.761H899.744V175.557C899.744 182.505 899.902 193.401 890.269 193.401C887.585 193.401 885.69 192.453 883.953 190.559C881.742 187.084 881.9 182.663 881.9 178.715V117.761H861.372V185.979C861.372 200.823 865.004 209.192 881.269 209.192C891.217 209.034 897.218 204.139 900.376 193.559H900.692V206.823Z"></path>
<path fill="white" d="M960.382 117.761H940.643V206.823H961.172V155.344C961.488 142.237 970.173 139.395 981.543 140.5V116.182C978.542 116.34 974.594 116.024 968.752 120.919C965.751 123.446 963.225 127.078 960.698 133.552H960.382V117.761Z"></path>
<path fill="white" d="M1053.24 206.823C1052.13 202.718 1051.5 198.612 1051.5 194.348V141.764C1051.81 130.078 1050.08 115.392 1022.13 115.392C996.388 115.392 990.861 127.236 991.019 144.132H1010.6C1010.44 136.079 1012.02 131.184 1021.34 131.184C1026.86 131.184 1030.02 131.815 1030.97 135.763C1032.71 143.027 1029.55 146.975 1020.86 150.607C1004.76 157.239 990.387 162.134 990.387 182.505C990.387 200.823 997.651 209.192 1014.23 209.192C1017.71 209.192 1021.02 208.087 1024.02 206.192C1027.18 204.297 1029.86 201.297 1032.23 197.665H1032.55C1032.23 200.823 1032.39 203.981 1033.81 206.823H1053.24ZM1030.97 169.556C1030.5 178.083 1032.71 193.401 1020.55 193.401C1012.97 193.401 1010.92 188.822 1010.92 182.031C1010.92 178.241 1011.39 173.82 1014.39 171.293C1019.76 166.872 1025.92 163.398 1030.97 159.924V169.556Z"></path>
<path fill="white" d="M1092.87 117.761H1072.34V206.823H1092.87V149.186C1092.56 139.711 1095.24 132.447 1102.98 132.763C1110.72 133.079 1111.66 138.763 1111.66 147.449V206.823H1132.19V138.132C1132.82 122.183 1123.35 115.392 1111.66 115.392C1106.93 115.392 1097.77 116.656 1093.19 126.92H1092.87V117.761Z"></path>
<path fill="white" d="M1181.46 191.032C1178.93 191.348 1173.25 191.822 1172.78 188.032V132.763H1181.46V117.761H1172.78V93.2849H1152.09V117.761H1143.88V132.763H1152.25V193.085C1152.25 209.666 1169.3 208.56 1181.46 207.139V191.032Z"></path>
<path fill="white" d="M560.868 277.794C560.71 266.108 561.657 238.947 526.443 238.947C503.072 238.947 491.702 250.001 491.702 270.214C491.702 276.53 493.755 283.005 497.387 288.374C506.388 300.217 520.758 306.691 532.286 315.692C537.97 319.64 541.129 324.378 541.129 331.326C541.129 340.327 536.707 345.222 527.39 345.222C516.494 345.222 513.02 336.853 513.494 325.325V318.377H491.386V327.062C491.386 348.222 500.861 363.066 527.39 363.066C549.024 363.066 563.868 351.381 563.868 328.957C563.868 318.693 561.499 311.587 553.92 304.165C547.761 298.164 534.339 289.321 527.075 284.742C520.126 280.32 514.442 276.846 514.442 267.845C514.442 259.792 519.179 256.791 526.601 256.791C538.76 256.791 539.708 267.213 539.55 277.794H560.868Z"></path>
<path fill="white" d="M619.874 360.224H639.455V271.161H618.926V328.957C618.926 335.905 619.084 346.801 609.452 346.801C606.767 346.801 604.872 345.854 603.135 343.959C600.924 340.485 601.082 336.063 601.082 332.115V271.161H580.554V339.379C580.554 354.223 584.186 362.592 600.451 362.592C610.399 362.434 616.4 357.539 619.558 346.959H619.874V360.224Z"></path>
<path fill="white" d="M680.038 304.323C679.722 297.217 680.038 284.584 689.671 284.584C699.303 284.584 698.356 292.953 698.988 301.796V331.484C698.514 340.011 696.303 346.801 689.987 346.801C683.354 346.801 680.038 341.274 680.038 331.01V304.323ZM680.038 271.161H659.51V390.069H679.091V351.065H679.407C684.46 360.066 690.145 362.119 698.198 362.592C715.568 362.592 719.042 347.117 719.516 332.905V300.691C719.042 276.214 711.463 269.108 698.198 268.793C689.671 268.635 684.144 271.793 680.354 280.478H680.038V271.161Z"></path>
<path fill="white" d="M758.994 304.323C758.678 297.217 758.994 284.584 768.627 284.584C778.259 284.584 777.312 292.953 777.944 301.796V331.484C777.47 340.011 775.259 346.801 768.943 346.801C762.31 346.801 758.994 341.274 758.994 331.01V304.323ZM758.994 271.161H738.466V390.069H758.047V351.065H758.362C763.416 360.066 769.1 362.119 777.154 362.592C794.524 362.592 797.998 347.117 798.472 332.905V300.691C797.998 276.214 790.419 269.108 777.154 268.793C768.627 268.635 763.1 271.793 759.31 280.478H758.994V271.161Z"></path>
<path fill="white" d="M840.477 360.224V241.79H819.948V360.224H840.477Z"></path>
<path fill="white" d="M853.002 271.161L874.478 358.96C875.268 362.119 876.373 367.172 876.373 370.33C876.373 376.015 867.53 374.278 864.214 374.278V390.227C892.638 394.333 893.112 381.7 898.323 361.487L919.957 271.161H899.113L890.112 319.009C888.69 326.588 887.585 334.326 886.953 342.064H886.638C885.848 334.168 885.058 326.273 883.637 318.377L874.636 271.161H853.002Z"></path>
<path fill="white" d="M1035.76 360.224V342.853H994.702V241.79H972.595V360.224H1035.76Z"></path>
<path fill="white" d="M1080.61 344.432C1078.08 344.748 1072.4 345.222 1071.92 341.432V286.163H1080.61V271.161H1071.92V246.685H1051.23V271.161H1043.02V286.163H1051.39V346.485C1051.39 363.066 1068.45 361.961 1080.61 360.539V344.432Z"></path>
<path fill="white" d="M1132.61 331.01C1132.61 341.274 1129.29 346.801 1122.66 346.801C1116.35 346.801 1114.13 340.011 1113.66 331.484V301.796C1114.29 292.953 1113.34 284.584 1122.98 284.584C1132.61 284.584 1132.93 297.217 1132.61 304.323V331.01ZM1132.61 360.224H1153.14V241.79H1132.61V272.267C1132.61 274.951 1132.77 277.478 1133.24 280.162H1132.93C1128.82 271.635 1123.29 268.635 1114.61 268.793C1101.34 269.108 1093.61 275.899 1093.13 300.375V332.589C1093.61 346.801 1097.24 362.592 1114.61 362.592C1122.66 362.119 1128.35 359.75 1132.29 350.749H1132.61V360.224Z"></path>
<path fill="white" d="M1200.51 360.224V339.379H1179.67V360.224H1200.51Z"></path>
</svg>
